<svg xmlns="http://www.w3.org/2000/svg" xmlns:xlink="http://www.w3.org/1999/xlink" width="151" zoomAndPan="magnify" viewBox="0 0 113.25 113.249996" height="151" preserveAspectRatio="xMidYMid meet" version="1.0"><defs><clipPath id="bd42cc812a"><path d="M 0 0 L 112.503906 0 L 112.503906 112.503906 L 0 112.503906 Z M 0 0 " clip-rule="nonzero"/></clipPath></defs><g clip-path="url(#bd42cc812a)"><path fill="#ffffff" d="M 0 0 L 112.503906 0 L 112.503906 112.503906 L 0 112.503906 Z M 0 0 " fill-opacity="1" fill-rule="nonzero"/><path fill="#ffffff" d="M 0 0 L 112.503906 0 L 112.503906 112.503906 L 0 112.503906 Z M 0 0 " fill-opacity="1" fill-rule="nonzero"/><path fill="#000000" d="M 77.757812 109.46875 C 77.136719 109.46875 77.101562 109.371094 76.707031 109.28125 L 75.625 108.71875 L 74.570312 107.3125 C 74.519531 107.167969 74.496094 107.144531 74.457031 107.015625 C 74.375 106.785156 74.390625 106.574219 74.351562 106.300781 C 74.253906 105.570312 74.464844 104.960938 74.785156 104.347656 C 74.84375 104.242188 75.042969 103.988281 75.132812 103.882812 L 75.253906 103.746094 C 75.261719 103.738281 75.269531 103.730469 75.277344 103.722656 L 75.457031 103.542969 C 75.859375 103.160156 76.796875 102.707031 77.238281 102.707031 C 78.121094 102.707031 78.441406 102.652344 79.21875 103.039062 C 79.265625 103.0625 79.273438 103.0625 79.324219 103.085938 C 79.636719 103.238281 79.960938 103.554688 80.203125 103.792969 C 80.28125 103.875 80.324219 103.90625 80.394531 104.011719 C 80.605469 104.300781 80.6875 104.421875 80.824219 104.757812 C 81.25 105.792969 81.164062 107.128906 80.460938 108.019531 L 80.265625 108.238281 C 79.855469 108.679688 79.386719 109.105469 78.78125 109.265625 C 78.5 109.347656 78.039062 109.460938 77.742188 109.460938 Z M 26.601562 103.632812 C 26.601562 103.335938 26.691406 103.183594 26.746094 102.957031 C 26.804688 102.742188 26.78125 102.828125 26.859375 102.660156 C 27.054688 102.273438 27.191406 101.96875 27.554688 101.609375 L 28.085938 101.167969 C 28.546875 100.867188 28.402344 100.957031 28.878906 100.773438 C 29.007812 100.722656 29.015625 100.699219 29.136719 100.667969 C 30.316406 100.402344 31.582031 100.765625 32.429688 101.617188 C 32.847656 102.035156 32.847656 102.15625 33.097656 102.589844 C 33.203125 102.773438 33.148438 102.675781 33.203125 102.894531 C 33.238281 103.023438 33.269531 103.046875 33.308594 103.199219 C 33.421875 103.609375 33.414062 104.324219 33.308594 104.726562 L 32.914062 105.667969 C 32.550781 106.238281 32.4375 106.339844 31.898438 106.75 C 31.484375 107.054688 31.476562 106.96875 31.144531 107.128906 C 31.121094 107.136719 31.058594 107.175781 31.007812 107.191406 C 30.929688 107.226562 30.734375 107.25 30.667969 107.265625 C 30.417969 107.304688 30.21875 107.378906 29.960938 107.378906 C 29.410156 107.378906 28.449219 107.066406 27.964844 106.65625 C 27.957031 106.648438 27.949219 106.636719 27.941406 106.628906 C 27.933594 106.621094 27.925781 106.613281 27.917969 106.605469 L 27.417969 106.132812 C 27.101562 105.785156 27.054688 105.59375 26.882812 105.28125 C 26.601562 104.726562 26.617188 104.269531 26.617188 103.648438 Z M 58.53125 102.25 C 58.53125 102.042969 58.570312 101.992188 58.644531 101.847656 C 59.183594 100.730469 60.039062 100.195312 61.347656 100.46875 C 61.648438 100.53125 61.785156 100.628906 62.042969 100.796875 L 62.375 101.078125 C 62.753906 101.464844 63.003906 102.082031 63.003906 102.605469 C 63.003906 103.144531 62.734375 103.753906 62.363281 104.125 L 62.042969 104.414062 C 61.394531 104.894531 60.429688 104.949219 59.734375 104.582031 C 59.507812 104.460938 59.320312 104.363281 59.160156 104.179688 C 58.5625 103.464844 58.53125 103.078125 58.53125 102.25 Z M 49.839844 96.675781 C 49.839844 96.273438 50.007812 96.015625 50.242188 95.796875 C 50.660156 95.394531 51.273438 95.492188 51.695312 95.855469 C 51.816406 95.957031 51.847656 96.015625 51.929688 96.183594 C 52.363281 97.082031 51.363281 97.96875 50.636719 97.671875 C 50.613281 97.664062 50.566406 97.636719 50.53125 97.621094 C 50.324219 97.535156 50.316406 97.550781 50.167969 97.371094 C 50.023438 97.195312 49.847656 96.964844 49.847656 96.675781 Z M 98.113281 82.183594 C 98.113281 81.976562 98.136719 81.871094 98.207031 81.71875 C 98.457031 81.132812 98.363281 81.230469 98.863281 80.683594 L 99.160156 80.417969 C 99.636719 80.085938 100.058594 79.984375 100.628906 79.984375 C 101.605469 79.984375 102.550781 80.65625 102.867188 81.4375 C 103.1875 82.25 103.171875 82.691406 102.859375 83.480469 C 102.445312 84.507812 101.226562 85.140625 100.015625 84.886719 C 99.6875 84.8125 99.386719 84.644531 99.113281 84.449219 L 99.023438 84.386719 C 99.015625 84.378906 98.941406 84.324219 98.933594 84.324219 L 98.878906 84.273438 C 98.847656 84.242188 98.78125 84.160156 98.734375 84.113281 L 98.363281 83.617188 C 98.085938 83.085938 98.105469 82.753906 98.105469 82.183594 Z M 4.027344 80.441406 C 4.027344 79.910156 4.472656 79.203125 4.921875 78.875 C 5.277344 78.617188 5.429688 78.542969 5.820312 78.488281 C 5.988281 78.464844 6.078125 78.390625 6.238281 78.390625 L 7.152344 78.609375 C 7.410156 78.738281 7.570312 78.832031 7.789062 79.042969 C 8.335938 79.566406 8.644531 80.441406 8.441406 81.15625 C 8.386719 81.347656 8.441406 81.164062 8.371094 81.339844 C 8.335938 81.421875 8.320312 81.460938 8.296875 81.527344 C 8.214844 81.742188 8.0625 81.945312 7.917969 82.121094 C 7.652344 82.441406 6.964844 82.851562 6.648438 82.851562 C 6.085938 82.851562 5.925781 82.90625 5.527344 82.738281 L 5.457031 82.707031 C 5.132812 82.585938 4.882812 82.449219 4.65625 82.175781 C 4.15625 81.566406 4.035156 81.355469 4.035156 80.441406 Z M 34.921875 38.515625 C 34.921875 38.003906 35.050781 37.433594 35.292969 37 C 35.527344 36.570312 35.753906 36.226562 36.085938 35.898438 C 36.730469 35.253906 37.757812 34.789062 38.773438 34.789062 L 72.914062 34.789062 C 73.308594 34.789062 73.882812 34.902344 74.214844 35.027344 L 74.988281 35.429688 C 74.996094 35.4375 75.011719 35.445312 75.019531 35.457031 L 75.480469 35.816406 L 76.34375 36.949219 C 76.707031 37.65625 76.773438 38.140625 76.773438 38.984375 L 76.773438 72.414062 C 76.773438 73.03125 76.707031 73.5625 76.457031 74.101562 L 75.917969 74.992188 C 75.890625 75.023438 75.898438 75.015625 75.875 75.046875 C 75.867188 75.058594 75.835938 75.089844 75.828125 75.105469 L 75.441406 75.492188 C 75.132812 75.773438 74.882812 75.933594 74.488281 76.125 L 73.753906 76.375 C 73.488281 76.421875 73.261719 76.511719 72.914062 76.511719 L 38.675781 76.511719 C 38.34375 76.511719 37.773438 76.375 37.496094 76.253906 L 37.167969 76.125 C 37.0625 76.070312 37.101562 76.085938 37.003906 76.039062 L 36.019531 75.320312 C 36.011719 75.3125 36.003906 75.304688 35.996094 75.296875 L 35.925781 75.21875 C 35.890625 75.183594 35.835938 75.105469 35.8125 75.074219 C 35.285156 74.367188 34.921875 73.761719 34.921875 72.734375 Z M 14.722656 61.554688 C 14.480469 61.554688 14.109375 61.402344 13.9375 61.203125 C 13.027344 60.109375 14.511719 58.703125 15.503906 59.691406 C 15.707031 59.894531 15.835938 60.125 15.828125 60.472656 C 15.828125 60.558594 15.785156 60.847656 15.746094 60.9375 C 15.585938 61.257812 15.171875 61.546875 14.722656 61.546875 Z M 102.429688 60.375 C 102.429688 60.199219 102.453125 60.238281 102.535156 60.070312 L 102.566406 60.003906 C 102.921875 59.28125 103.824219 59.144531 104.308594 59.667969 C 104.382812 59.75 104.496094 59.910156 104.535156 60.003906 C 104.578125 60.09375 104.65625 60.34375 104.65625 60.421875 C 104.671875 61.097656 103.882812 61.84375 103.089844 61.445312 C 102.726562 61.257812 102.640625 61.042969 102.511719 60.792969 C 102.398438 60.574219 102.421875 60.71875 102.421875 60.367188 Z M 2.898438 50.546875 C 2.898438 50.417969 3.042969 49.71875 3.140625 49.511719 L 3.246094 49.253906 C 3.390625 48.929688 3.679688 48.578125 3.90625 48.328125 L 4.722656 47.710938 C 4.746094 47.695312 4.800781 47.660156 4.816406 47.652344 C 5.132812 47.492188 5.753906 47.324219 6.078125 47.324219 C 6.851562 47.324219 6.472656 47.285156 7.023438 47.414062 C 7.5625 47.542969 7.867188 47.636719 8.394531 48.039062 C 8.539062 48.152344 8.652344 48.273438 8.789062 48.410156 C 8.835938 48.464844 8.835938 48.457031 8.886719 48.515625 L 9.144531 48.867188 C 9.613281 49.527344 9.855469 50.78125 9.5625 51.609375 C 9.355469 52.210938 9.191406 52.621094 8.628906 53.132812 L 8.5 53.253906 C 8.457031 53.289062 8.433594 53.3125 8.386719 53.351562 C 8.304688 53.414062 8.242188 53.457031 8.152344 53.527344 C 7.691406 53.867188 6.796875 54.113281 6.238281 54.074219 C 6.117188 54.066406 5.535156 54.011719 5.457031 53.976562 C 4.390625 53.601562 3.589844 53.023438 3.179688 51.945312 C 3.082031 51.695312 3.089844 51.878906 3.019531 51.488281 C 2.914062 50.925781 2.898438 51.148438 2.898438 50.53125 Z M 107.78125 47.46875 C 107.273438 47.226562 106.757812 46.761719 106.449219 46.289062 C 105.902344 45.4375 105.675781 44.214844 106.085938 43.339844 C 106.199219 43.105469 106.125 43.113281 106.335938 42.769531 L 106.683594 42.292969 C 106.757812 42.207031 106.789062 42.148438 106.867188 42.070312 L 107.601562 41.515625 C 107.714844 41.457031 107.78125 41.433594 107.878906 41.386719 C 107.976562 41.335938 108.046875 41.3125 108.167969 41.265625 C 108.296875 41.207031 108.28125 41.191406 108.476562 41.160156 C 109.136719 41.03125 109.789062 41.046875 110.421875 41.28125 C 111.058594 41.515625 111.15625 41.585938 111.710938 42.09375 C 111.945312 42.300781 112.324219 42.871094 112.398438 43.097656 C 112.703125 43.980469 112.824219 44.792969 112.4375 45.675781 L 112.226562 46.128906 C 112.132812 46.320312 112.195312 46.214844 112.066406 46.375 C 111.769531 46.738281 111.640625 46.921875 111.21875 47.21875 C 111.082031 47.324219 111.105469 47.292969 110.960938 47.371094 L 110.894531 47.414062 C 110.886719 47.414062 110.144531 47.847656 109.121094 47.847656 L 107.789062 47.484375 Z M 95.132812 40.816406 C 95.132812 40.636719 95.15625 40.566406 95.222656 40.445312 C 95.230469 40.4375 95.3125 40.300781 95.320312 40.285156 C 95.375 40.210938 95.351562 40.238281 95.417969 40.179688 C 95.820312 39.800781 95.910156 39.84375 96.359375 39.84375 C 96.84375 39.84375 97.578125 40.605469 97.191406 41.386719 C 97.183594 41.402344 97.109375 41.523438 97.09375 41.546875 C 96.699219 42.078125 96.054688 42.15625 95.496094 41.730469 L 95.253906 41.457031 C 95.085938 41.199219 95.125 41.21875 95.125 40.824219 Z M 12.414062 28.527344 C 12.082031 28.527344 11.976562 28.472656 11.71875 28.398438 L 11.121094 28.175781 C 10.816406 28.039062 10.492188 27.796875 10.257812 27.546875 L 9.628906 26.792969 C 9.570312 26.695312 9.554688 26.625 9.507812 26.503906 C 9.449219 26.367188 9.425781 26.351562 9.394531 26.207031 C 9.199219 25.386719 9.046875 24.792969 9.476562 23.851562 C 9.621094 23.546875 9.683594 23.351562 9.925781 23.070312 C 9.96875 23.03125 9.984375 23.015625 10.023438 22.96875 C 11.03125 21.890625 12.46875 21.367188 13.898438 22.019531 C 13.996094 22.058594 13.914062 22.035156 14.035156 22.089844 C 14.585938 22.324219 15.109375 22.757812 15.433594 23.265625 C 15.511719 23.394531 15.535156 23.410156 15.59375 23.511719 C 15.933594 24.171875 16.15625 25.144531 15.941406 25.941406 C 15.828125 26.34375 15.664062 26.664062 15.433594 27.023438 C 15.199219 27.394531 14.792969 27.773438 14.414062 28.003906 C 14.40625 28.015625 14.390625 28.023438 14.382812 28.023438 C 13.695312 28.457031 13.179688 28.519531 12.414062 28.519531 Z M 50.816406 19.777344 C 50.644531 19.777344 50.539062 19.6875 50.417969 19.609375 L 50.175781 19.390625 C 49.894531 19.054688 49.816406 18.539062 50.046875 18.144531 L 50.226562 17.914062 C 51.105469 17.0625 52.460938 18.097656 52.011719 19.125 L 51.90625 19.277344 C 51.542969 19.738281 51.339844 19.777344 50.816406 19.777344 Z M 38.941406 11.484375 C 38.941406 11.257812 39.113281 10.777344 39.210938 10.625 C 39.589844 9.988281 39.765625 9.910156 40.339844 9.601562 C 40.765625 9.378906 41.613281 9.394531 42.097656 9.628906 C 42.382812 9.765625 42.503906 9.835938 42.710938 10.046875 L 43.15625 10.625 L 43.421875 11.386719 C 43.421875 11.871094 43.421875 12.269531 43.15625 12.714844 L 42.847656 13.121094 C 42.503906 13.492188 42.4375 13.523438 42.007812 13.71875 C 41.808594 13.804688 41.839844 13.820312 41.574219 13.847656 C 41.203125 13.878906 41.007812 13.910156 40.613281 13.828125 C 40.144531 13.726562 39.582031 13.285156 39.296875 12.832031 C 39.289062 12.824219 39.28125 12.808594 39.28125 12.800781 L 39.25 12.738281 C 39 12.289062 38.949219 12.039062 38.949219 11.5 Z M 79.765625 9.328125 C 79.765625 8.75 79.863281 8.460938 80.046875 7.972656 C 80.144531 7.699219 80.453125 7.328125 80.664062 7.105469 L 80.914062 6.847656 C 81.855469 5.960938 83.453125 5.753906 84.671875 6.390625 C 84.746094 6.429688 84.890625 6.515625 84.957031 6.566406 L 85.625 7.128906 C 85.675781 7.191406 85.683594 7.199219 85.746094 7.265625 L 86.183594 7.90625 L 86.472656 8.894531 C 86.609375 9.859375 86.515625 10.164062 86.09375 11.035156 C 85.175781 12.9375 82.132812 13.515625 80.5 11.515625 L 80.039062 10.792969 C 79.832031 10.359375 79.757812 9.917969 79.757812 9.328125 Z M 58.175781 4.621094 C 58.175781 4.394531 58.234375 4.347656 58.289062 4.171875 C 58.476562 3.664062 58.734375 3.175781 59.234375 2.851562 C 59.3125 2.796875 59.347656 2.789062 59.425781 2.742188 C 60.25 2.21875 61.394531 2.304688 62.210938 2.957031 L 62.453125 3.175781 C 62.511719 3.230469 62.519531 3.238281 62.582031 3.304688 L 62.855469 3.695312 C 62.890625 3.769531 62.890625 3.761719 62.921875 3.832031 C 63.21875 4.4375 63.230469 4.75 63.097656 5.464844 C 62.996094 6.027344 62.632812 6.492188 62.210938 6.832031 C 62.113281 6.910156 62.058594 6.96875 61.953125 7.03125 C 61.1875 7.488281 60.121094 7.480469 59.386719 7.007812 L 59.175781 6.855469 C 58.984375 6.703125 58.886719 6.628906 58.734375 6.429688 C 58.199219 5.753906 58.191406 5.351562 58.191406 4.613281 Z M 61.566406 9.890625 C 61.566406 9.691406 62.1875 9.554688 62.355469 9.507812 C 62.792969 9.378906 63.109375 9.167969 63.488281 8.9375 C 63.980469 8.628906 64.4375 8.132812 64.761719 7.648438 L 64.859375 7.488281 C 64.996094 7.242188 65.15625 7.046875 65.246094 6.75 L 65.488281 5.867188 C 65.675781 5.117188 65.625 4.554688 65.472656 3.808594 C 65.398438 3.464844 65.304688 3.132812 65.132812 2.8125 C 65.125 2.804688 65.117188 2.789062 65.117188 2.78125 L 64.957031 2.484375 C 64.914062 2.410156 64.890625 2.371094 64.835938 2.289062 L 63.316406 0.78125 C 63.230469 0.730469 63.238281 0.722656 63.132812 0.660156 L 62.71875 0.449219 C 62.066406 0.183594 62.050781 0.144531 61.285156 0.0390625 C 60.703125 -0.0390625 60.28125 0 59.667969 0.0820312 C 59.183594 0.136719 58.726562 0.371094 58.320312 0.578125 L 57.933594 0.804688 C 57.621094 0.996094 57.378906 1.230469 57.117188 1.480469 C 56.632812 1.929688 56.28125 2.554688 56.039062 3.167969 C 55.761719 3.839844 55.609375 5.367188 55.859375 6.066406 C 56.101562 6.757812 56.34375 7.496094 56.859375 8.042969 C 56.867188 8.050781 56.875 8.058594 56.882812 8.066406 C 56.925781 8.117188 56.957031 8.15625 57.003906 8.203125 L 57.917969 8.984375 C 57.972656 9.023438 58.007812 9.058594 58.070312 9.089844 L 58.613281 9.371094 C 58.71875 9.417969 58.675781 9.417969 58.8125 9.472656 C 58.878906 9.5 58.941406 9.515625 59.015625 9.539062 L 59.871094 9.753906 C 59.894531 9.867188 59.917969 9.875 59.917969 10.011719 L 59.917969 28.90625 C 59.917969 29.242188 59.039062 29.082031 58.796875 29.089844 C 56.667969 29.171875 54.429688 29.089844 52.308594 29.089844 C 51.6875 29.089844 51.792969 29.179688 51.792969 28.296875 L 51.792969 21.59375 C 52.132812 21.367188 52.582031 21.246094 52.90625 20.957031 C 52.914062 20.949219 52.945312 20.917969 52.953125 20.910156 L 53.511719 20.234375 C 53.929688 19.601562 54.050781 18.417969 53.792969 17.75 C 53.542969 17.109375 53.042969 16.425781 52.398438 16.121094 C 51.421875 15.652344 50.773438 15.652344 49.789062 16.0625 C 49.078125 16.363281 48.539062 16.925781 48.25 17.648438 C 48.136719 17.929688 48.085938 18.136719 48.085938 18.457031 C 48.085938 19.527344 48.304688 20.265625 49.089844 20.949219 L 49.386719 21.160156 C 49.789062 21.441406 50.144531 21.304688 50.144531 21.996094 L 50.144531 28.238281 C 50.144531 28.578125 50.097656 28.679688 50.097656 29.011719 C 49.917969 29.050781 49.925781 29.113281 49.734375 29.113281 L 42.382812 29.113281 C 42.195312 29.113281 42.089844 29.074219 41.96875 29.011719 C 41.945312 28.898438 41.921875 28.890625 41.921875 28.753906 L 41.921875 16.570312 C 41.921875 16.082031 42.882812 16.167969 43.679688 15.613281 L 43.980469 15.40625 C 44.550781 15.019531 44.949219 14.441406 45.304688 13.863281 C 45.359375 13.773438 45.351562 13.804688 45.398438 13.703125 C 45.441406 13.621094 45.449219 13.566406 45.480469 13.476562 C 45.511719 13.394531 45.535156 13.355469 45.5625 13.300781 C 46.003906 12.191406 45.898438 10.703125 45.382812 9.644531 C 45.359375 9.59375 45.328125 9.539062 45.292969 9.472656 L 44.851562 8.792969 C 44.496094 8.339844 44.050781 7.964844 43.558594 7.667969 L 43.292969 7.523438 C 42.113281 6.976562 40.894531 6.832031 39.644531 7.289062 C 38.726562 7.625 37.933594 8.164062 37.375 8.96875 C 37.296875 9.082031 37.191406 9.210938 37.144531 9.296875 L 36.957031 9.683594 C 36.917969 9.773438 36.910156 9.820312 36.867188 9.902344 L 36.660156 10.511719 C 36.390625 11.363281 36.457031 12.585938 36.835938 13.378906 L 37.085938 13.902344 C 37.222656 14.175781 37.449219 14.441406 37.707031 14.769531 C 37.886719 14.996094 38.085938 15.15625 38.320312 15.339844 L 38.835938 15.695312 C 39.046875 15.824219 39.28125 15.953125 39.539062 16.015625 L 40.28125 16.25 L 40.316406 27.433594 C 40.25 27.917969 40.28125 28.480469 40.28125 28.992188 C 40.023438 29.121094 39.984375 29.066406 39.71875 29.050781 C 39.425781 29.027344 39.347656 29.097656 39.054688 29.097656 C 38.410156 29.105469 37.53125 29.027344 36.910156 29.105469 C 36.691406 29.140625 36.546875 29.210938 36.335938 29.25 L 35.222656 29.523438 C 35.09375 29.566406 35.148438 29.566406 34.964844 29.628906 L 32.890625 30.738281 C 32.234375 31.15625 31.742188 31.695312 31.226562 32.257812 L 31.128906 32.359375 C 31.105469 32.386719 31.082031 32.417969 31.058594 32.441406 C 30.945312 32.585938 30.863281 32.699219 30.757812 32.859375 L 29.984375 34.234375 C 29.757812 34.652344 29.328125 35.929688 29.296875 36.371094 C 29.265625 36.796875 29.191406 37.222656 29.191406 37.648438 C 29.191406 38.132812 29.191406 38.605469 29.191406 39.085938 C 29.191406 39.457031 29.28125 40.210938 28.933594 40.210938 L 23.429688 40.210938 C 23.066406 40.210938 22.519531 40.011719 22.195312 39.851562 L 21.742188 39.53125 C 21.6875 39.472656 21.671875 39.457031 21.613281 39.402344 C 21.566406 39.351562 21.515625 39.3125 21.476562 39.28125 C 21.257812 39.070312 21.105469 38.78125 20.953125 38.515625 L 17.03125 31.515625 C 16.988281 31.453125 16.964844 31.40625 16.941406 31.355469 C 16.910156 31.300781 16.882812 31.246094 16.851562 31.1875 C 16.769531 31.042969 16.488281 30.632812 16.488281 30.527344 C 16.488281 30.214844 16.457031 30.273438 16.683594 30.109375 L 18.007812 28.664062 C 18.039062 28.601562 18.054688 28.585938 18.078125 28.535156 L 18.707031 27.265625 C 18.757812 27.144531 18.757812 27.015625 18.796875 26.898438 C 19.175781 25.699219 19.085938 24.292969 18.707031 23.085938 C 18.644531 22.886719 18.675781 23.015625 18.613281 22.878906 L 18.34375 22.226562 C 18.289062 22.105469 18.191406 21.953125 18.109375 21.851562 L 17.636719 21.144531 C 17.328125 20.742188 16.820312 20.234375 16.382812 19.976562 L 15.253906 19.3125 C 15.101562 19.230469 14.972656 19.222656 14.800781 19.148438 C 14.59375 19.0625 14.519531 19.078125 14.316406 19.011719 C 14.15625 18.964844 14.230469 18.972656 14.101562 18.925781 C 13.664062 18.765625 12.582031 18.75 12.195312 18.796875 C 11.863281 18.835938 11.414062 18.835938 11.136719 18.925781 L 10.21875 19.238281 C 9.847656 19.367188 9.523438 19.527344 9.226562 19.738281 L 8.667969 20.105469 C 8.628906 20.136719 8.621094 20.144531 8.585938 20.179688 C 8.578125 20.1875 8.570312 20.195312 8.5625 20.203125 C 8.554688 20.210938 8.546875 20.21875 8.539062 20.226562 C 8.214844 20.507812 7.867188 20.796875 7.609375 21.144531 L 7.457031 21.351562 C 7.449219 21.359375 7.441406 21.367188 7.433594 21.382812 L 7.222656 21.679688 C 6.8125 22.324219 6.554688 23.046875 6.335938 23.769531 C 6.109375 24.550781 6.167969 26.34375 6.527344 27.234375 C 6.761719 27.820312 7.046875 28.429688 7.433594 28.9375 C 7.441406 28.945312 7.449219 28.953125 7.457031 28.96875 C 7.773438 29.371094 8.09375 29.757812 8.507812 30.078125 L 8.691406 30.207031 C 8.8125 30.296875 8.878906 30.359375 9.007812 30.457031 C 9.628906 30.914062 10.765625 31.398438 11.589844 31.46875 C 12.710938 31.566406 13.460938 31.628906 14.585938 31.269531 C 15.285156 31.042969 14.972656 30.929688 15.691406 32.152344 L 16.667969 33.886719 C 16.730469 34 16.667969 33.878906 16.738281 34.015625 L 17.910156 36.128906 C 17.949219 36.203125 17.933594 36.164062 17.988281 36.25 C 18.371094 36.863281 18.683594 37.542969 19.054688 38.164062 L 19.539062 39.015625 C 19.824219 39.585938 20.195312 40.074219 20.636719 40.527344 C 21.074219 40.96875 21.6875 41.25 22.269531 41.457031 C 22.605469 41.578125 23.003906 41.652344 23.359375 41.652344 L 27.730469 41.652344 C 28.144531 41.652344 29.167969 41.507812 29.167969 41.90625 L 29.167969 49.742188 C 29.167969 49.910156 28.984375 50 28.804688 50 L 13.074219 50 C 12.898438 50 12.875 49.960938 12.710938 49.953125 L 12.398438 48.730469 C 12.300781 48.449219 12.21875 48.152344 12.066406 47.886719 C 11.5 46.875 10.800781 46 9.8125 45.363281 L 8.941406 44.898438 C 8.351562 44.640625 8.335938 44.679688 7.796875 44.503906 C 7.367188 44.359375 6.617188 44.292969 6.125 44.328125 C 5.535156 44.359375 4.964844 44.421875 4.4375 44.59375 C 3.996094 44.738281 3.527344 44.921875 3.113281 45.164062 L 2.671875 45.445312 C 2.664062 45.453125 2.648438 45.460938 2.640625 45.46875 C 2.332031 45.683594 2.082031 45.871094 1.816406 46.136719 L 1.589844 46.375 C 1.582031 46.382812 1.574219 46.390625 1.566406 46.398438 C 1.558594 46.410156 1.550781 46.417969 1.542969 46.425781 C 1.535156 46.433594 1.523438 46.441406 1.515625 46.449219 L 1.015625 47.074219 C 1.007812 47.082031 1 47.097656 0.992188 47.109375 L 0.855469 47.332031 C 0.574219 47.847656 0.25 48.402344 0.105469 48.996094 C -0.121094 49.945312 -0.105469 50.3125 -0.105469 51.351562 C -0.105469 51.6875 0.03125 52.332031 0.152344 52.628906 C 0.21875 52.78125 0.210938 52.734375 0.257812 52.933594 C 0.355469 53.3125 0.589844 53.703125 0.789062 54.042969 C 0.796875 54.050781 0.808594 54.066406 0.808594 54.074219 C 1.050781 54.484375 1.371094 54.894531 1.703125 55.230469 L 2.550781 55.929688 C 2.621094 55.980469 2.605469 55.980469 2.671875 56.019531 L 4.292969 56.808594 C 4.519531 56.863281 4.617188 56.933594 4.84375 56.976562 C 6.253906 57.199219 6.761719 57.207031 8.136719 56.847656 C 8.304688 56.800781 8.34375 56.816406 8.5 56.742188 L 9.339844 56.347656 C 9.449219 56.285156 9.523438 56.253906 9.644531 56.1875 C 10.105469 55.929688 10.667969 55.464844 11.03125 55.0625 C 11.074219 55.015625 11.089844 55 11.128906 54.957031 L 11.179688 54.902344 C 11.1875 54.894531 11.195312 54.886719 11.203125 54.878906 C 11.75 54.234375 11.96875 53.792969 12.324219 52.917969 C 12.613281 52.195312 12.550781 51.488281 12.921875 51.414062 C 13.179688 51.367188 13.527344 51.398438 13.761719 51.4375 C 14.609375 51.566406 15.5625 51.316406 16.382812 51.4375 C 16.980469 51.527344 26.183594 51.464844 27.773438 51.464844 C 28.621094 51.464844 29.160156 51.269531 29.160156 51.921875 L 29.160156 59.347656 C 29.160156 59.554688 29.105469 59.804688 28.902344 59.804688 L 17.796875 59.804688 C 17.636719 59.804688 17.53125 59.5625 17.464844 59.417969 C 17.328125 59.121094 17.175781 58.832031 16.972656 58.582031 C 16.652344 58.195312 16.214844 57.933594 15.738281 57.761719 C 15.09375 57.53125 14.082031 57.515625 13.445312 57.875 C 12.996094 58.132812 12.664062 58.40625 12.339844 58.824219 C 11.839844 59.46875 11.695312 60.609375 11.914062 61.371094 C 11.992188 61.660156 12.1875 62.039062 12.355469 62.261719 C 13.597656 63.910156 16.199219 63.8125 17.265625 62.039062 L 17.394531 61.8125 C 17.457031 61.652344 17.53125 61.242188 17.75 61.242188 L 28.855469 61.242188 C 28.992188 61.242188 29 61.265625 29.113281 61.292969 C 29.25 61.863281 29.160156 68.203125 29.160156 69.328125 C 29.160156 69.648438 28.5 69.527344 28.183594 69.527344 C 27.925781 69.527344 27.78125 69.578125 27.617188 69.578125 C 27.207031 69.578125 26.660156 69.496094 26.183594 69.535156 C 25.367188 69.601562 25.488281 69.535156 24.738281 69.535156 L 16.867188 69.535156 L 15.578125 69.730469 C 14.59375 70.035156 13.996094 70.539062 13.292969 71.296875 L 11.050781 73.867188 C 10.96875 73.964844 10.902344 74.003906 10.824219 74.101562 L 10.226562 74.785156 C 9.917969 75.089844 9.667969 75.449219 9.378906 75.78125 C 9.328125 75.835938 9.355469 75.804688 9.304688 75.859375 L 9.046875 76.164062 C 9.007812 76.214844 9 76.214844 8.976562 76.246094 L 8.925781 76.300781 C 8.675781 76.566406 8.605469 76.6875 8.265625 76.496094 L 7.472656 76.207031 C 6.464844 75.996094 5.957031 76.019531 4.949219 76.230469 C 4.6875 76.285156 4.851562 76.246094 4.679688 76.328125 C 4.324219 76.496094 4.003906 76.589844 3.679688 76.816406 L 3.050781 77.316406 C 2.753906 77.597656 2.519531 77.910156 2.292969 78.246094 L 2.035156 78.707031 C 1.886719 78.988281 1.621094 79.804688 1.621094 80.085938 C 1.621094 80.957031 1.589844 81.621094 1.921875 82.402344 C 2.269531 83.222656 2.777344 83.921875 3.503906 84.460938 L 4.601562 85.054688 C 5.390625 85.351562 6.746094 85.457031 7.507812 85.175781 C 7.917969 85.023438 8.304688 84.917969 8.691406 84.667969 C 9.039062 84.441406 9.347656 84.21875 9.628906 83.914062 C 9.820312 83.703125 10 83.542969 10.144531 83.300781 C 10.152344 83.292969 10.160156 83.277344 10.160156 83.269531 C 10.167969 83.261719 10.175781 83.246094 10.175781 83.238281 L 10.824219 81.734375 C 10.984375 81.230469 10.96875 80.238281 10.839844 79.710938 C 10.523438 78.464844 10.28125 78.496094 9.789062 77.582031 L 12.242188 74.75 C 12.960938 73.988281 13.617188 73.152344 14.324219 72.371094 C 14.648438 72.019531 14.929688 71.691406 15.34375 71.441406 C 15.359375 71.433594 15.390625 71.410156 15.40625 71.402344 L 15.792969 71.222656 C 16.441406 70.894531 17.464844 71.03125 18.175781 71.03125 L 24.140625 71.03125 C 24.859375 71.03125 25.632812 70.964844 26.3125 71.023438 C 26.511719 71.039062 26.691406 70.972656 26.972656 70.972656 C 29.441406 70.972656 29.183594 70.667969 29.183594 72.15625 C 29.183594 72.628906 29.183594 73.113281 29.183594 73.585938 C 29.183594 74.09375 29.25 74.453125 29.289062 74.921875 L 29.484375 75.804688 C 29.613281 76.261719 29.804688 76.648438 29.984375 77.097656 C 30.316406 77.917969 30.871094 78.714844 31.46875 79.355469 L 32.007812 79.894531 C 32.019531 79.902344 32.027344 79.910156 32.035156 79.917969 C 32.042969 79.925781 32.050781 79.933594 32.058594 79.941406 C 32.445312 80.304688 32.839844 80.625 33.308594 80.898438 L 34.238281 81.40625 C 34.738281 81.644531 35.246094 81.824219 35.796875 81.953125 L 36.375 82.097656 C 36.5625 82.121094 36.8125 82.152344 37.003906 82.191406 C 38.09375 82.386719 39.644531 82.167969 40.394531 82.34375 C 40.394531 83.839844 40.324219 86.613281 40.417969 88.058594 C 40.445312 88.390625 40.371094 88.4375 40.394531 88.742188 C 40.410156 88.976562 40.445312 89.105469 40.445312 89.410156 C 40.445312 89.882812 40.445312 90.367188 40.445312 90.839844 C 40.445312 91.371094 40.386719 91.722656 40.394531 92.222656 C 40.394531 93.015625 40.476562 94.382812 40.355469 95.097656 C 40.289062 95.484375 40.175781 95.820312 39.953125 96.128906 C 39.515625 96.714844 39.007812 97.050781 38.402344 97.453125 L 35.578125 99.359375 C 35.511719 99.40625 35.519531 99.40625 35.457031 99.445312 L 35.15625 99.664062 C 35.09375 99.710938 35.003906 99.757812 34.941406 99.800781 L 33.535156 98.691406 C 33.375 98.59375 33.277344 98.53125 33.125 98.433594 C 32.726562 98.183594 32.234375 98.054688 31.832031 97.878906 L 30.773438 97.652344 C 30.082031 97.589844 28.917969 97.644531 28.257812 97.855469 C 27.570312 98.070312 26.910156 98.371094 26.3125 98.789062 L 25.785156 99.1875 C 25.042969 99.847656 24.503906 100.636719 24.074219 101.535156 C 24.011719 101.664062 23.953125 101.839844 23.90625 101.976562 L 23.664062 102.964844 C 23.566406 103.714844 23.511719 104.789062 23.753906 105.523438 C 23.882812 105.914062 23.972656 106.300781 24.15625 106.664062 L 25.230469 108.308594 C 25.238281 108.316406 25.246094 108.324219 25.253906 108.335938 L 25.40625 108.496094 C 25.464844 108.550781 25.457031 108.542969 25.511719 108.589844 C 25.882812 108.9375 26.253906 109.234375 26.707031 109.507812 C 26.851562 109.597656 27.070312 109.734375 27.191406 109.789062 L 28.320312 110.207031 C 29.644531 110.441406 30.152344 110.519531 31.453125 110.246094 L 32.613281 109.867188 C 33.042969 109.699219 33.4375 109.433594 33.816406 109.171875 L 34.359375 108.734375 C 34.367188 108.726562 34.375 108.71875 34.382812 108.710938 C 34.390625 108.703125 34.398438 108.695312 34.40625 108.6875 L 35.101562 107.949219 C 35.441406 107.554688 35.648438 107.089844 35.882812 106.628906 C 36.183594 106.050781 36.269531 105.425781 36.359375 104.796875 C 36.496094 103.851562 36.417969 102.675781 36.027344 101.808594 C 35.972656 101.671875 35.964844 101.632812 35.898438 101.472656 C 35.835938 101.300781 35.769531 101.3125 35.769531 101.191406 C 35.769531 100.886719 36.027344 100.84375 36.277344 100.667969 L 37.628906 99.757812 C 37.707031 99.710938 37.789062 99.65625 37.878906 99.597656 C 38.410156 99.261719 38.910156 98.820312 39.460938 98.515625 L 39.984375 98.160156 C 40.417969 97.855469 40.832031 97.484375 41.121094 97.035156 C 41.363281 96.65625 41.589844 96.246094 41.703125 95.820312 L 41.898438 94.679688 C 41.9375 93.28125 41.800781 82.472656 41.9375 82.335938 C 42.074219 82.199219 44.132812 82.296875 44.566406 82.296875 C 44.761719 82.296875 44.867188 82.257812 44.980469 82.257812 C 45.367188 82.257812 45.875 82.328125 46.3125 82.289062 C 46.882812 82.242188 46.804688 82.265625 47.34375 82.289062 C 47.859375 82.3125 48.796875 82.191406 49.183594 82.25 C 49.476562 82.289062 49.804688 82.289062 50.175781 82.289062 C 50.203125 82.402344 50.226562 82.410156 50.226562 82.546875 L 50.226562 93.707031 C 50.226562 93.902344 49.675781 94.007812 49.417969 94.183594 C 49.273438 94.277344 49.175781 94.320312 49.054688 94.441406 C 48.992188 94.496094 48.96875 94.535156 48.902344 94.59375 L 48.167969 95.710938 L 48.015625 96.480469 C 48.015625 96.90625 48.03125 97.339844 48.191406 97.734375 L 48.691406 98.570312 C 48.925781 98.851562 49.175781 99.09375 49.507812 99.246094 L 49.613281 99.292969 C 49.78125 99.390625 49.621094 99.332031 49.855469 99.414062 C 50.492188 99.625 50.652344 99.605469 51.355469 99.605469 C 51.648438 99.605469 52.382812 99.324219 52.625 99.125 L 53.390625 98.351562 C 53.398438 98.34375 53.40625 98.335938 53.414062 98.320312 L 53.601562 97.992188 C 54.003906 97.203125 53.996094 96.121094 53.574219 95.347656 C 53.535156 95.277344 53.511719 95.203125 53.46875 95.140625 L 53.058594 94.632812 C 52.746094 94.328125 52.347656 94.085938 51.929688 93.910156 C 51.769531 93.84375 51.671875 93.796875 51.671875 93.554688 L 51.671875 82.5 C 51.671875 82.378906 51.757812 82.296875 51.871094 82.296875 L 59.894531 82.296875 C 60.015625 82.296875 60.046875 82.328125 60.046875 82.449219 L 60.046875 97.855469 C 60.046875 98.175781 59.582031 98.136719 59.339844 98.226562 C 59.226562 98.265625 59.265625 98.265625 59.128906 98.320312 L 58.585938 98.546875 C 58.09375 98.769531 57.652344 99.164062 57.289062 99.558594 L 57.09375 99.777344 C 56.988281 99.914062 56.980469 99.9375 56.882812 100.082031 C 56.8125 100.195312 56.820312 100.160156 56.765625 100.265625 L 56.214844 101.566406 C 56.0625 102.121094 56.085938 103.382812 56.261719 103.914062 C 56.320312 104.082031 56.34375 104.179688 56.402344 104.339844 C 56.632812 104.992188 57.144531 105.667969 57.644531 106.125 C 57.652344 106.132812 57.660156 106.140625 57.667969 106.148438 C 57.675781 106.15625 57.683594 106.164062 57.691406 106.171875 L 57.980469 106.398438 C 58.199219 106.566406 58.464844 106.742188 58.71875 106.847656 L 59.105469 107.023438 C 59.589844 107.210938 60.242188 107.328125 60.757812 107.328125 C 62.019531 107.328125 63.246094 106.773438 64.125 105.914062 C 64.132812 105.90625 64.140625 105.898438 64.148438 105.890625 L 64.957031 104.75 C 65.230469 104.210938 65.441406 103.585938 65.441406 102.980469 C 65.441406 102.1875 65.414062 102.203125 65.269531 101.40625 C 65.191406 100.957031 64.867188 100.363281 64.609375 100.015625 C 64.421875 99.777344 64.292969 99.574219 64.066406 99.375 C 64.027344 99.34375 64.019531 99.332031 63.988281 99.300781 L 63.109375 98.644531 L 62.226562 98.242188 C 61.984375 98.152344 61.535156 98.183594 61.535156 97.910156 L 61.535156 82.449219 C 61.535156 82.242188 61.726562 82.289062 61.945312 82.296875 C 64.570312 82.335938 67.191406 82.296875 69.816406 82.296875 C 69.953125 82.875 69.863281 89.660156 69.863281 90.847656 C 69.863281 92.09375 69.824219 92.566406 70.203125 93.683594 C 70.289062 93.941406 70.460938 94.140625 70.574219 94.382812 C 70.660156 94.558594 70.710938 94.671875 70.816406 94.867188 L 72.066406 97.148438 C 72.445312 97.933594 72.898438 98.722656 73.316406 99.476562 L 74.019531 100.875 L 73.429688 101.367188 C 73.421875 101.375 73.414062 101.382812 73.40625 101.390625 L 72.945312 101.847656 C 72.71875 102.121094 72.445312 102.410156 72.277344 102.71875 L 71.710938 103.890625 C 71.6875 103.96875 71.679688 104.003906 71.65625 104.082031 C 71.613281 104.195312 71.566406 104.261719 71.527344 104.421875 L 71.347656 105.273438 C 71.300781 105.835938 71.292969 106.390625 71.347656 106.960938 L 71.621094 108.070312 L 72.171875 109.316406 C 72.242188 109.425781 72.253906 109.484375 72.316406 109.578125 C 72.738281 110.285156 73.480469 110.996094 74.148438 111.4375 C 74.609375 111.734375 75.148438 111.972656 75.667969 112.183594 C 76.273438 112.425781 76.996094 112.488281 77.722656 112.488281 C 78.613281 112.488281 78.828125 112.390625 79.546875 112.253906 C 79.824219 112.199219 79.910156 112.128906 80.160156 112.046875 C 80.453125 111.949219 80.679688 111.78125 80.9375 111.644531 L 82.550781 110.335938 C 83.035156 109.804688 82.9375 109.8125 83.285156 109.273438 L 83.6875 108.503906 C 83.738281 108.398438 83.746094 108.308594 83.792969 108.199219 L 83.964844 107.59375 C 84.011719 107.28125 84.066406 107.296875 84.101562 106.960938 L 84.101562 105.214844 C 84.078125 104.960938 83.996094 104.789062 83.957031 104.542969 C 83.882812 104.097656 83.703125 103.746094 83.535156 103.375 C 83.390625 103.046875 83.179688 102.652344 82.953125 102.363281 L 82.203125 101.519531 C 82.195312 101.511719 82.164062 101.480469 82.148438 101.472656 L 81.292969 100.789062 C 81.285156 100.78125 81.265625 100.773438 81.257812 100.773438 L 81.105469 100.667969 C 81.097656 100.660156 81.082031 100.652344 81.074219 100.644531 L 80.773438 100.484375 C 80.613281 100.394531 80.429688 100.289062 80.257812 100.226562 C 79.886719 100.082031 79.453125 99.886719 79.046875 99.839844 C 77.789062 99.6875 77.578125 99.625 76.351562 99.855469 C 76.109375 99.90625 75.640625 100.113281 75.464844 100.105469 C 75.277344 100.097656 75.222656 99.914062 75.148438 99.785156 L 74.664062 98.882812 C 74.40625 98.371094 74.085938 97.902344 73.859375 97.382812 C 73.792969 97.238281 73.769531 97.21875 73.695312 97.074219 L 72.40625 94.671875 C 71.960938 93.871094 71.597656 93.371094 71.371094 92.480469 C 71.332031 92.316406 71.292969 92.285156 71.292969 92.09375 L 71.292969 82.464844 C 71.292969 82.175781 71.726562 82.257812 72.011719 82.265625 C 72.316406 82.265625 72.625 82.265625 72.9375 82.265625 C 73.898438 82.265625 74.632812 82.191406 75.503906 82.054688 L 77.238281 81.484375 C 77.335938 81.445312 77.394531 81.398438 77.515625 81.347656 C 77.675781 81.277344 77.691406 81.261719 77.820312 81.1875 L 79.953125 79.621094 C 80.007812 79.574219 79.984375 79.597656 80.03125 79.550781 L 81.300781 77.894531 C 81.308594 77.878906 81.332031 77.835938 81.332031 77.828125 C 81.882812 76.816406 82.050781 76.277344 82.355469 75.160156 C 82.46875 74.734375 82.503906 73.980469 82.542969 73.507812 C 82.738281 71.144531 81.90625 70.925781 83.550781 70.984375 L 86.964844 71 C 87.328125 71 87.554688 70.972656 87.84375 70.949219 C 88.113281 70.925781 88.328125 71 88.660156 71 C 89.082031 71 89.332031 70.949219 89.6875 70.941406 C 90.074219 70.941406 90.257812 71 90.664062 71 C 91.355469 71 91.855469 70.917969 92.4375 71.175781 C 92.550781 71.222656 92.476562 71.199219 92.617188 71.253906 L 93.109375 71.527344 C 93.34375 71.683594 93.472656 71.828125 93.640625 72.019531 L 93.84375 72.277344 C 93.851562 72.285156 93.859375 72.300781 93.867188 72.308594 C 94.753906 73.707031 95.796875 75.675781 96.699219 77.171875 L 97.265625 78.144531 C 97.320312 78.253906 97.457031 78.335938 97.457031 78.464844 C 97.457031 78.808594 97.464844 78.640625 97.386719 78.746094 C 97.378906 78.753906 97.3125 78.816406 97.304688 78.824219 C 97.238281 78.890625 97.199219 78.929688 97.117188 79.003906 C 97.054688 79.058594 97.078125 79.035156 97.015625 79.097656 C 96.707031 79.394531 96.464844 79.773438 96.261719 80.144531 C 96.078125 80.472656 95.890625 80.90625 95.804688 81.277344 C 95.570312 82.257812 95.625 83.574219 96.09375 84.484375 C 96.375 85.046875 96.699219 85.601562 97.167969 86.027344 L 97.359375 86.1875 C 97.957031 86.691406 98.410156 86.910156 99.144531 87.175781 C 100.160156 87.542969 101.421875 87.441406 102.4375 87.0625 L 103.34375 86.582031 C 103.503906 86.46875 103.59375 86.429688 103.730469 86.308594 C 103.738281 86.300781 103.746094 86.292969 103.753906 86.285156 C 103.761719 86.273438 103.769531 86.265625 103.777344 86.257812 C 103.785156 86.25 103.792969 86.242188 103.800781 86.234375 C 103.808594 86.226562 103.816406 86.21875 103.828125 86.210938 L 104.34375 85.695312 C 104.691406 85.328125 104.972656 84.84375 105.175781 84.371094 C 105.375 83.898438 105.511719 83.285156 105.519531 82.722656 C 105.527344 82.0625 105.496094 81.605469 105.285156 81.011719 C 105.246094 80.90625 105.238281 80.820312 105.214844 80.730469 C 105.15625 80.570312 105.183594 80.648438 105.117188 80.519531 C 105.070312 80.425781 105.054688 80.359375 105.003906 80.273438 C 104.828125 79.933594 104.609375 79.574219 104.351562 79.292969 C 104.34375 79.285156 104.335938 79.277344 104.328125 79.269531 L 102.890625 78.144531 C 102.625 77.988281 102.113281 77.789062 101.816406 77.726562 C 101.621094 77.683594 101.4375 77.675781 101.226562 77.644531 C 99.039062 77.332031 99.023438 78.457031 98.523438 77.417969 L 97.734375 76.0625 C 97.707031 76.019531 97.683594 75.988281 97.667969 75.964844 C 97.585938 75.835938 97.59375 75.835938 97.523438 75.699219 L 96.03125 73.136719 C 96.019531 73.128906 96.011719 73.113281 96.011719 73.105469 L 94.941406 71.304688 L 94.292969 70.613281 C 94.285156 70.605469 94.277344 70.597656 94.269531 70.589844 L 93.332031 69.984375 C 93.019531 69.800781 92.726562 69.730469 92.332031 69.65625 C 92.113281 69.617188 91.871094 69.550781 91.6875 69.527344 C 91.097656 69.464844 84.640625 69.511719 83.15625 69.519531 C 82.777344 69.519531 82.746094 69.550781 82.484375 69.414062 C 82.625 67.808594 82.542969 63.855469 82.535156 62.046875 C 82.535156 61.75 82.4375 61.226562 82.738281 61.226562 L 100.421875 61.226562 C 100.992188 61.226562 100.671875 62.375 102.332031 63.164062 C 102.460938 63.226562 102.429688 63.226562 102.535156 63.269531 C 103.222656 63.523438 103.714844 63.453125 104.359375 63.316406 C 104.441406 63.300781 104.542969 63.277344 104.632812 63.234375 C 104.957031 63.082031 105.253906 62.945312 105.519531 62.6875 C 106.125 62.09375 106.167969 61.941406 106.410156 61.121094 C 106.636719 60.367188 106.375 59.386719 105.917969 58.777344 L 105.570312 58.40625 L 104.320312 57.707031 C 103.730469 57.480469 102.945312 57.59375 102.375 57.8125 C 102.269531 57.851562 102.246094 57.875 102.132812 57.933594 L 101.871094 58.085938 C 101.371094 58.488281 101.226562 58.695312 100.886719 59.257812 C 100.792969 59.417969 100.765625 59.804688 100.515625 59.804688 L 82.832031 59.804688 C 82.695312 59.804688 82.6875 59.78125 82.574219 59.757812 C 82.429688 59.136719 82.527344 56.863281 82.527344 56.019531 L 82.511719 52.050781 C 82.511719 52.027344 82.519531 51.914062 82.519531 51.871094 C 82.527344 51.65625 82.503906 51.671875 82.574219 51.511719 C 82.695312 51.390625 93.753906 51.464844 94.859375 51.464844 C 96.125 51.464844 100.824219 51.566406 101.703125 51.367188 L 102.300781 51.191406 C 102.617188 51.070312 103.035156 50.859375 103.300781 50.652344 L 104.550781 49.589844 C 104.867188 49.339844 104.957031 49.1875 105.285156 49.484375 L 105.480469 49.65625 C 105.488281 49.664062 105.503906 49.671875 105.511719 49.679688 L 106.449219 50.234375 C 106.796875 50.417969 107.265625 50.601562 107.652344 50.675781 C 108.054688 50.753906 108.289062 50.859375 108.757812 50.859375 C 109.566406 50.859375 110.339844 50.859375 111.105469 50.644531 L 113.148438 49.605469 C 113.753906 49.148438 114.230469 48.640625 114.632812 48.015625 L 114.933594 47.542969 C 115.0625 47.285156 115.214844 47.019531 115.296875 46.730469 C 115.320312 46.648438 115.335938 46.542969 115.375 46.449219 C 115.441406 46.296875 115.449219 46.328125 115.488281 46.152344 L 115.660156 45.195312 C 115.804688 43.835938 115.554688 42.453125 114.84375 41.28125 C 114.585938 40.855469 114.253906 40.375 113.890625 40.027344 C 113.84375 39.980469 113.835938 39.980469 113.777344 39.929688 C 113.769531 39.921875 113.761719 39.914062 113.753906 39.90625 L 112.15625 38.78125 C 111.445312 38.4375 111.15625 38.394531 110.445312 38.234375 C 110.21875 38.1875 110.097656 38.125 109.839844 38.125 C 108.628906 38.125 108.804688 38.097656 107.75 38.300781 C 107.296875 38.386719 106.972656 38.539062 106.5625 38.703125 L 105.902344 39.070312 C 104.964844 39.699219 104.164062 40.5 103.617188 41.507812 C 103.421875 41.851562 103.292969 42.261719 103.15625 42.632812 C 102.960938 43.144531 102.890625 43.835938 102.847656 44.429688 L 102.914062 45.4375 C 103.019531 46.046875 103.34375 47.027344 103.648438 47.574219 C 104.050781 48.296875 104.078125 48.0625 103.527344 48.578125 L 103.222656 48.84375 C 102.15625 49.75 101.832031 50.058594 100.273438 50.058594 L 83.15625 50.058594 C 82.769531 50.058594 82.511719 50.082031 82.527344 49.792969 C 82.550781 49.269531 82.453125 48.578125 82.511719 48.183594 C 82.617188 47.492188 82.535156 43.5625 82.542969 42.429688 C 82.542969 42.078125 82.390625 41.714844 82.847656 41.714844 L 93.082031 41.714844 C 93.332031 41.714844 93.398438 41.84375 93.472656 42.042969 C 93.566406 42.300781 93.671875 42.535156 93.84375 42.75 L 94.375 43.296875 C 94.480469 43.386719 94.472656 43.371094 94.59375 43.441406 L 95.0625 43.691406 C 95.320312 43.8125 95.640625 43.875 95.917969 43.910156 C 96.644531 44.011719 97.457031 43.78125 98.023438 43.304688 L 98.628906 42.679688 C 98.871094 42.367188 99.039062 41.964844 99.097656 41.554688 C 99.21875 40.671875 99.152344 40.527344 98.894531 39.761719 L 98.71875 39.425781 C 98.710938 39.417969 98.699219 39.402344 98.699219 39.394531 L 98.335938 38.933594 C 98.328125 38.925781 98.320312 38.917969 98.3125 38.910156 L 98.070312 38.695312 C 97.75 38.445312 97.328125 38.234375 96.933594 38.140625 C 96.175781 37.953125 95.253906 38.097656 94.625 38.523438 C 94.550781 38.574219 94.519531 38.597656 94.441406 38.652344 L 94.269531 38.789062 C 93.980469 39.054688 93.84375 39.257812 93.632812 39.59375 C 93.519531 39.777344 93.4375 40.277344 93.1875 40.277344 L 82.753906 40.277344 C 82.4375 40.277344 82.527344 39.3125 82.542969 39.144531 C 82.589844 38.25 82.566406 37.40625 82.429688 36.507812 C 82.390625 36.257812 82.332031 36.152344 82.292969 35.929688 C 82.226562 35.550781 82.113281 35.222656 81.96875 34.867188 C 81.898438 34.683594 81.847656 34.546875 81.777344 34.394531 L 81.613281 34.039062 C 81.332031 33.574219 81.082031 33.109375 80.742188 32.660156 L 80.257812 32.0625 C 80.195312 31.992188 80.179688 31.96875 80.113281 31.902344 C 79.984375 31.773438 79.886719 31.671875 79.757812 31.542969 L 78.578125 30.617188 C 78.234375 30.359375 77.601562 30.0625 77.207031 29.886719 L 76.183594 29.523438 C 75.972656 29.476562 75.996094 29.421875 75.667969 29.371094 C 75.296875 29.316406 74.90625 29.1875 74.472656 29.179688 C 74.011719 29.171875 73.542969 29.179688 73.082031 29.179688 C 72.839844 29.179688 72.597656 29.179688 72.363281 29.179688 C 72.113281 29.179688 71.386719 29.226562 71.386719 28.921875 L 71.386719 17.757812 C 71.386719 16.570312 71.96875 15.414062 73.101562 14.964844 C 73.277344 14.890625 73.21875 14.898438 73.339844 14.84375 L 77.601562 12.945312 C 77.863281 12.945312 78.070312 13.445312 78.25 13.628906 C 78.320312 13.710938 78.304688 13.683594 78.371094 13.765625 L 78.699219 14.101562 C 78.710938 14.113281 78.742188 14.144531 78.757812 14.152344 L 79.183594 14.496094 C 79.703125 14.914062 79.808594 14.9375 80.429688 15.261719 C 81.007812 15.558594 82.203125 15.863281 82.859375 15.863281 C 83.550781 15.863281 84.285156 15.847656 84.949219 15.589844 C 85.261719 15.46875 85.328125 15.5 85.753906 15.316406 L 87.410156 14.257812 C 87.992188 13.726562 88.492188 13.113281 88.847656 12.40625 C 89.023438 12.0625 89.203125 11.675781 89.304688 11.28125 C 89.363281 11.082031 89.363281 10.878906 89.417969 10.671875 C 89.476562 10.4375 89.539062 10.359375 89.539062 10.078125 C 89.539062 9.066406 89.621094 9.074219 89.410156 8.15625 L 88.691406 6.210938 C 88.492188 5.882812 88.265625 5.554688 88 5.261719 L 87.722656 4.972656 C 87.714844 4.964844 87.707031 4.957031 87.699219 4.949219 C 87.601562 4.855469 87.621094 4.871094 87.515625 4.78125 L 87.296875 4.589844 C 87.207031 4.507812 87.191406 4.5 87.09375 4.429688 L 85.667969 3.601562 C 84.8125 3.222656 84.085938 3.125 83.117188 3.125 C 82.132812 3.125 81.761719 3.230469 80.953125 3.480469 L 79.796875 4.019531 C 79.257812 4.371094 78.832031 4.757812 78.371094 5.207031 C 77.84375 5.722656 77.507812 6.371094 77.191406 7.054688 C 77.070312 7.3125 76.738281 8.542969 76.738281 8.808594 L 76.738281 10.085938 C 76.738281 10.519531 76.941406 10.847656 76.941406 11.363281 C 76.941406 11.507812 75.910156 11.894531 75.722656 11.988281 L 74.488281 12.550781 C 73.632812 12.976562 72.105469 13.460938 71.429688 14.0625 L 70.726562 14.746094 C 70.652344 14.835938 70.605469 14.898438 70.53125 15.019531 C 70.46875 15.132812 70.421875 15.210938 70.363281 15.308594 L 70.210938 15.566406 C 70.144531 15.734375 70.121094 15.757812 70.066406 15.878906 C 69.804688 16.472656 69.734375 17.230469 69.742188 17.863281 C 69.742188 18.058594 69.78125 18.160156 69.78125 18.273438 C 69.78125 18.394531 69.742188 18.433594 69.742188 18.636719 L 69.742188 26.367188 C 69.742188 27.015625 69.796875 27.734375 69.75 28.375 C 69.734375 28.617188 69.824219 28.832031 69.742188 29.128906 C 69.582031 29.148438 69.554688 29.179688 69.378906 29.179688 L 62.234375 29.179688 C 62.050781 29.179688 61.566406 29.210938 61.566406 28.921875 Z M 61.566406 9.890625 " fill-opacity="1" fill-rule="evenodd"/></g><path fill="#000000" d="M 41.71875 64.777344 C 41.71875 64.449219 42.269531 63.171875 42.40625 62.800781 L 46.175781 52.53125 C 46.222656 52.378906 46.214844 52.363281 46.28125 52.226562 C 46.34375 52.089844 46.34375 52.089844 46.382812 51.921875 C 46.433594 51.71875 46.425781 51.769531 46.488281 51.617188 L 46.714844 51.019531 C 46.761719 50.902344 46.773438 50.84375 46.828125 50.722656 L 47.804688 48.113281 C 47.878906 47.953125 47.84375 47.953125 47.894531 47.789062 C 47.957031 47.558594 48.402344 46.464844 48.515625 46.359375 C 48.546875 46.328125 48.726562 46.230469 48.78125 46.214844 C 49.210938 46.03125 50.644531 46.191406 51.179688 46.191406 C 51.769531 46.191406 53.414062 45.964844 53.832031 46.367188 L 54.429688 47.824219 C 54.472656 47.925781 54.488281 48.023438 54.527344 48.136719 C 54.578125 48.28125 54.671875 48.578125 54.746094 48.738281 L 55.390625 50.5 C 55.441406 50.652344 55.441406 50.667969 55.503906 50.796875 L 57.257812 55.554688 C 57.289062 55.640625 57.273438 55.632812 57.296875 55.714844 L 57.570312 56.460938 C 57.660156 56.652344 57.730469 56.878906 57.796875 57.054688 L 58.34375 58.550781 C 58.394531 58.679688 58.394531 58.734375 58.441406 58.863281 C 58.492188 59 58.523438 59.039062 58.5625 59.152344 C 58.613281 59.304688 58.605469 59.320312 58.667969 59.457031 C 58.757812 59.636719 58.726562 59.539062 58.78125 59.757812 L 59.097656 60.617188 C 59.144531 60.738281 59.144531 60.808594 59.191406 60.929688 C 59.605469 61.917969 59.902344 62.929688 60.289062 63.933594 C 60.476562 64.433594 60.929688 65.085938 60.21875 65.085938 L 56.925781 65.085938 C 56.449219 65.085938 56.351562 64.84375 56.207031 64.472656 L 55.554688 62.816406 C 55.449219 62.449219 55.214844 62.054688 55.125 61.652344 L 47.207031 61.652344 C 47.0625 61.871094 47.070312 61.855469 46.980469 62.144531 L 46.117188 64.402344 C 46.078125 64.503906 46.085938 64.53125 46.046875 64.632812 C 45.980469 64.820312 45.925781 64.921875 45.738281 64.996094 C 45.261719 65.171875 42.800781 65.074219 42.171875 65.074219 C 41.914062 65.074219 41.710938 65.003906 41.710938 64.769531 Z M 63.519531 46.554688 C 63.519531 46.289062 63.738281 46.144531 63.980469 46.144531 L 67.367188 46.144531 C 67.742188 46.144531 67.992188 46.230469 68.03125 46.554688 L 68.03125 58.324219 C 68.03125 58.742188 68.085938 58.953125 68.078125 59.347656 C 68.078125 59.765625 68.023438 59.996094 68.023438 60.367188 C 68.023438 60.785156 68.09375 60.992188 68.078125 61.394531 C 68.070312 61.71875 68.023438 61.972656 68.023438 62.367188 C 68.023438 62.851562 68.121094 64.386719 67.992188 64.792969 C 67.917969 65.011719 67.835938 65.027344 67.59375 65.066406 L 66.382812 65.132812 C 65.5625 65.09375 66.148438 65.066406 65.246094 65.132812 C 64.988281 65.148438 64.949219 65.085938 64.691406 65.085938 C 63.753906 65.058594 63.503906 65.210938 63.503906 64.472656 L 63.503906 46.554688 Z M 36.941406 38.773438 L 36.941406 72.558594 C 36.941406 72.847656 37.152344 73.472656 37.425781 73.761719 C 37.675781 74.027344 38.199219 74.398438 38.539062 74.398438 L 73.089844 74.398438 C 73.6875 74.398438 74.457031 73.835938 74.640625 73.070312 C 74.679688 72.902344 74.738281 72.871094 74.738281 72.710938 L 74.738281 38.621094 C 74.738281 38.308594 74.558594 37.9375 74.414062 37.664062 C 74.277344 37.425781 74.171875 37.367188 73.957031 37.199219 C 73.800781 37.078125 73.914062 37.152344 73.730469 37.0625 C 73.414062 36.910156 73.066406 36.820312 72.703125 36.863281 C 71.921875 36.941406 67.222656 36.886719 66.199219 36.886719 L 38.949219 36.886719 C 38.441406 36.886719 38.394531 36.863281 38.03125 37.046875 C 37.636719 37.246094 37.507812 37.328125 37.246094 37.753906 C 37.101562 37.988281 36.941406 38.40625 36.941406 38.78125 Z M 36.941406 38.773438 " fill-opacity="1" fill-rule="evenodd"/><path fill="#000000" d="M 48.144531 58.125 C 48.144531 58.246094 48.175781 58.277344 48.296875 58.277344 L 54.050781 58.277344 C 54.351562 58.277344 54.109375 57.972656 54.066406 57.851562 L 53.230469 55.410156 C 53.1875 55.3125 53.164062 55.28125 53.125 55.160156 C 53.097656 55.078125 53.074219 54.976562 53.042969 54.886719 L 51.128906 49.679688 C 51.082031 49.886719 51.023438 49.96875 50.953125 50.167969 C 50.914062 50.28125 50.902344 50.328125 50.855469 50.433594 C 50.792969 50.578125 50.808594 50.492188 50.75 50.691406 L 49.554688 54.15625 C 49.5 54.277344 49.5 54.234375 49.453125 54.402344 C 49.410156 54.539062 49.417969 54.558594 49.371094 54.675781 L 49.183594 55.207031 C 49.128906 55.320312 49.121094 55.296875 49.070312 55.457031 L 48.523438 57.054688 C 48.484375 57.183594 48.492188 57.199219 48.433594 57.328125 L 48.152344 58.125 Z M 48.144531 58.125 " fill-opacity="1" fill-rule="evenodd"/></svg>