<svg xmlns="http://www.w3.org/2000/svg" xmlns:xlink="http://www.w3.org/1999/xlink" width="151" zoomAndPan="magnify" viewBox="0 0 113.25 113.249996" height="151" preserveAspectRatio="xMidYMid meet" version="1.0"><defs><clipPath id="a2d0760a3d"><path d="M 0 0 L 112.503906 0 L 112.503906 112.503906 L 0 112.503906 Z M 0 0 " clip-rule="nonzero"/></clipPath><clipPath id="e410f97356"><path d="M 28 81 L 87 81 L 87 112.503906 L 28 112.503906 Z M 28 81 " clip-rule="nonzero"/></clipPath></defs><g clip-path="url(#a2d0760a3d)"><path fill="#ffffff" d="M 0 0 L 112.503906 0 L 112.503906 112.503906 L 0 112.503906 Z M 0 0 " fill-opacity="1" fill-rule="nonzero"/><path fill="#ffffff" d="M 0 0 L 112.503906 0 L 112.503906 112.503906 L 0 112.503906 Z M 0 0 " fill-opacity="1" fill-rule="nonzero"/></g><path fill="#4e7896" d="M 46.164062 60.5625 C 46.164062 60.5625 43.164062 62.390625 48.25 62.914062 C 54.394531 63.699219 57.644531 63.570312 64.429688 62.261719 C 64.429688 62.261719 66.253906 63.441406 68.734375 64.355469 C 53.46875 70.890625 34.160156 63.960938 46.164062 60.5625 Z M 44.207031 52.066406 C 44.207031 52.066406 40.945312 54.550781 46.03125 55.070312 C 52.683594 55.726562 57.90625 55.855469 66.90625 54.027344 C 66.90625 54.027344 68.082031 55.335938 70.039062 55.988281 C 51.644531 61.480469 31.027344 56.511719 44.207031 52.066406 Z M 80.214844 66.96875 C 80.214844 66.96875 82.433594 68.796875 77.738281 70.238281 C 68.996094 72.851562 41.074219 73.636719 33.246094 70.238281 C 30.507812 69.058594 35.726562 67.359375 37.421875 67.097656 C 39.117188 66.707031 40.03125 66.707031 40.03125 66.707031 C 37.03125 64.613281 20.066406 71.019531 31.417969 72.863281 C 62.601562 77.964844 88.304688 70.640625 80.214844 66.980469 Z M 47.597656 43.175781 C 47.597656 43.175781 33.375 46.574219 42.507812 47.75 C 46.421875 48.273438 54.121094 48.144531 61.296875 47.621094 C 67.167969 47.097656 73.050781 46.050781 73.050781 46.050781 C 73.050781 46.050781 70.964844 46.964844 69.527344 47.878906 C 55.035156 51.675781 27.242188 49.976562 35.203125 46.054688 C 41.988281 42.785156 47.597656 43.175781 47.597656 43.175781 Z M 73.039062 57.425781 C 87.652344 49.84375 80.867188 42.523438 76.167969 43.4375 C 74.992188 43.699219 74.472656 43.960938 74.472656 43.960938 C 74.472656 43.960938 74.863281 43.175781 75.777344 42.917969 C 85.042969 39.648438 92.347656 52.71875 72.777344 57.820312 C 72.777344 57.820312 72.910156 57.6875 73.039062 57.425781 Z M 49.03125 78.078125 C 63.125 78.992188 84.652344 77.554688 85.171875 70.886719 C 85.171875 70.886719 84.132812 73.5 73.5625 75.460938 C 61.558594 77.683594 46.683594 77.421875 37.941406 75.984375 C 37.941406 75.984375 39.769531 77.550781 49.035156 78.074219 Z M 49.03125 78.078125 " fill-opacity="1" fill-rule="nonzero"/><path fill="#f58219" d="M 64.15625 0.0390625 C 64.15625 0.0390625 72.242188 8.273438 56.457031 20.691406 C 43.800781 30.753906 53.585938 36.507812 56.457031 43.042969 C 49.019531 36.375 43.671875 30.492188 47.324219 25.003906 C 52.6875 16.902344 67.425781 12.980469 64.15625 0.0390625 Z M 59.980469 37.554688 C 63.761719 41.867188 58.9375 45.789062 58.9375 45.789062 C 58.9375 45.789062 68.59375 40.824219 64.15625 34.679688 C 60.113281 28.796875 56.980469 25.917969 73.941406 16.113281 C 73.941406 16.113281 47.195312 22.777344 59.984375 37.550781 Z M 59.980469 37.554688 " fill-opacity="1" fill-rule="nonzero"/><g clip-path="url(#e410f97356)"><path fill="#4e7896" d="M 53.246094 106.0625 L 53.246094 93.253906 C 53.246094 89.984375 51.421875 87.761719 46.855469 87.761719 C 44.246094 87.761719 42.027344 88.417969 40.066406 89.199219 L 40.71875 91.554688 C 42.152344 91.03125 43.980469 90.511719 45.9375 90.511719 C 48.417969 90.511719 49.59375 91.554688 49.59375 93.648438 L 49.59375 95.347656 L 48.285156 95.347656 C 42.023438 95.347656 39.152344 97.699219 39.152344 101.503906 C 39.152344 104.640625 41.109375 106.46875 44.632812 106.46875 C 46.851562 106.46875 48.546875 105.425781 50.113281 104.117188 L 50.375 106.078125 L 53.246094 106.078125 Z M 49.59375 101.878906 C 48.289062 103.058594 46.855469 103.710938 45.546875 103.710938 C 43.851562 103.710938 42.808594 102.664062 42.808594 100.832031 C 42.808594 99 43.851562 97.695312 48.027344 97.695312 L 49.59375 97.695312 Z M 65.511719 106.0625 L 60.945312 106.0625 L 55.464844 88.15625 L 59.378906 88.15625 L 62.773438 99.136719 L 63.554688 102.402344 C 65.25 97.699219 66.554688 92.859375 67.078125 88.15625 L 70.992188 88.15625 C 69.949219 94.035156 68.121094 100.441406 65.511719 106.0625 Z M 86.648438 106.0625 L 86.648438 93.253906 C 86.648438 89.984375 84.820312 87.761719 80.253906 87.761719 C 77.644531 87.761719 75.425781 88.417969 73.46875 89.199219 L 73.988281 91.554688 C 75.554688 91.03125 77.382812 90.511719 79.335938 90.511719 C 81.816406 90.511719 82.992188 91.554688 82.992188 93.648438 L 82.992188 95.347656 L 81.683594 95.347656 C 75.421875 95.347656 72.550781 97.699219 72.550781 101.503906 C 72.550781 104.640625 74.378906 106.46875 77.902344 106.46875 C 80.25 106.46875 81.945312 105.425781 83.511719 104.117188 L 83.773438 106.078125 L 86.644531 106.078125 Z M 82.992188 101.878906 C 81.6875 103.058594 80.253906 103.710938 78.949219 103.710938 C 77.25 103.710938 76.210938 102.664062 76.210938 100.832031 C 76.210938 99 77.25 97.695312 81.429688 97.695312 L 82.996094 97.695312 L 82.996094 101.878906 Z M 35.113281 109.066406 C 34.070312 110.636719 32.503906 111.8125 30.546875 112.46875 L 28.851562 110.375 C 30.15625 109.589844 31.457031 108.414062 31.980469 107.371094 C 32.503906 106.453125 32.632812 105.148438 32.632812 102.140625 L 32.632812 81.75 L 36.546875 81.75 L 36.546875 101.878906 C 36.546875 105.933594 36.15625 107.5 35.113281 109.070312 Z M 35.113281 109.066406 " fill-opacity="1" fill-rule="nonzero"/></g></svg>