<svg id="Layer_1" data-name="Layer 1" xmlns="http://www.w3.org/2000/svg" viewBox="0 0 600 462.13"><defs><style>.cls-1{fill:#212322;}</style></defs><path class="cls-1" d="M277.66,146.15,299,168a2.18,2.18,0,0,0,1.4.78,2.08,2.08,0,0,0,1.4-.78l21.32-21.82a2.18,2.18,0,0,0,.78-1.4c0-.68-.39-1-1.15-1H278.05c-.78,0-1.15.35-1.15,1a2.1,2.1,0,0,0,.76,1.4ZM402.31,68.68c0-.78-.33-1.15-1-1.15a1.87,1.87,0,0,0-1.29.65L382.53,85.89v167h0L400,270.74a1.85,1.85,0,0,0,1.29.64c.68,0,1-.39,1-1.14ZM198.46,270.22c0,.77.33,1.14,1,1.14a1.83,1.83,0,0,0,1.28-.64l17.46-17.85h0v-167L200.79,68.16a2,2,0,0,0-1.3-.63c-.68,0-1,.39-1,1.15V270.22ZM243.87,112h113l15.88-16.16a1.81,1.81,0,0,0,.64-1.28c0-.68-.39-1-1.15-1H228.49c-.78,0-1.15.33-1.15,1a1.81,1.81,0,0,0,.64,1.28ZM228,243.06a1.85,1.85,0,0,0-.64,1.29c0,.68.39,1,1.15,1H372.25c.78,0,1.15-.33,1.15-1a1.85,1.85,0,0,0-.64-1.29l-15.88-16.15h-113ZM348.39,218.3a1.87,1.87,0,0,0,1.28.65c.69,0,1-.39,1-1.15h0V121.12c0-.78-.33-1.15-1-1.15a1.85,1.85,0,0,0-1.28.64l-16.56,16.84v64.06Zm-79.45-16.81V137.43l-16.57-16.84a1.83,1.83,0,0,0-1.28-.64c-.68,0-1,.39-1,1.15v96.7h0c0,.78.33,1.15,1,1.15a1.85,1.85,0,0,0,1.28-.65ZM133.5,311l-23.82,38.13L86.09,311H75.54v64.41H86.09V333.94q0-1.17-.06-2.31c0-.78-.1-1.58-.2-2.46A23.64,23.64,0,0,0,88,333.44L105.14,361h8.51l17-27.58c.43-.68.88-1.38,1.34-2.07s.92-1.42,1.35-2.18c-.08.86-.16,1.68-.2,2.46s-.06,1.53-.06,2.31v41.48h10.44V311ZM166,375.42l20.73-50.63c.17-.52.37-1.05.58-1.61a15,15,0,0,0,.59-2,15,15,0,0,0,.58,2c.22.56.41,1.09.59,1.61l11.34,27.57H176l6.31,9.4H204.1l5.66,13.64h11.08L193.67,311H182.34L155.17,375.4l10.78,0Zm162.31,0L354.42,311H343.08l-18.44,48.57q-.9,2.44-1.81,5.66-.9-3.21-1.81-5.66L302.61,311H290.76l26.16,64.41ZM428.1,311v64.41h42v-9.54H438.65V311Zm54.75,0v64.41h42.37v-9.54H493.4V311ZM377,320.55h33.76V311H366.53v64.41h44.83v-9.54H377V320.55Zm-93.91,9.79c0-6-1.87-10.72-5.61-14.17s-10-5.16-18.74-5.16H232.42v64.41H243V320.55h16.1q13,0,13,10.69,0,11.47-14,11.46h-8.51L243.5,352h14.3l17.79,23.43h12.75L268.9,349.63q14.16-5.11,14.15-19.29Zm123.15,8H377.61l6.44,9.54H406.2v-9.54Zm118.36-27.38v1.18h2.94v7h1.33v-7h2.93v-1.18Zm16.29,0-3,4.82-3-4.82h-1.34v8.15h1.34v-5.55c0-.09,0-.19,0-.31a3.47,3.47,0,0,0,.27.55l2.18,3.48h1.07l2.16-3.48.18-.26a1.39,1.39,0,0,0,.17-.27,1.67,1.67,0,0,0,0,.31v5.55h1.33V311l-1.33,0Z"/></svg>