<svg xmlns="http://www.w3.org/2000/svg" xmlns:xlink="http://www.w3.org/1999/xlink" width="151" zoomAndPan="magnify" viewBox="0 0 113.25 113.249996" height="151" preserveAspectRatio="xMidYMid meet" version="1.0"><defs><clipPath id="2bd32c543c"><path d="M 0 0 L 112.503906 0 L 112.503906 112.503906 L 0 112.503906 Z M 0 0 " clip-rule="nonzero"/></clipPath><clipPath id="d41879b2c9"><path d="M 35 34 L 111.398438 34 L 111.398438 110.035156 L 35 110.035156 Z M 35 34 " clip-rule="nonzero"/></clipPath><clipPath id="618f7e20de"><path d="M 4.109375 2.746094 L 81 2.746094 L 81 79 L 4.109375 79 Z M 4.109375 2.746094 " clip-rule="nonzero"/></clipPath><clipPath id="c5d0facbe0"><path d="M 4.109375 55 L 36 55 L 36 79 L 4.109375 79 Z M 4.109375 55 " clip-rule="nonzero"/></clipPath><clipPath id="ef3529c83a"><path d="M 57 55 L 111.398438 55 L 111.398438 81 L 57 81 Z M 57 55 " clip-rule="nonzero"/></clipPath></defs><g clip-path="url(#2bd32c543c)"><path fill="#ffffff" d="M 0 0 L 112.503906 0 L 112.503906 112.503906 L 0 112.503906 Z M 0 0 " fill-opacity="1" fill-rule="nonzero"/><path fill="#ffffff" d="M 0 0 L 112.503906 0 L 112.503906 112.503906 L 0 112.503906 Z M 0 0 " fill-opacity="1" fill-rule="nonzero"/></g><g clip-path="url(#d41879b2c9)"><path fill="#fab400" d="M 111.398438 56.390625 C 111.398438 66.648438 108.738281 72.394531 106.34375 75.476562 C 104.714844 77.601562 102.121094 78.742188 99.460938 78.742188 L 59.988281 78.742188 C 58.757812 78.742188 57.753906 79.746094 57.753906 80.976562 C 57.753906 82.207031 58.757812 83.210938 59.988281 83.210938 L 77.871094 83.210938 C 79.097656 83.210938 80.105469 84.21875 80.105469 85.445312 L 80.105469 97.964844 C 80.105469 100.601562 78.988281 103.171875 76.929688 104.804688 C 73.867188 107.261719 68.125 110.035156 57.753906 110.035156 C 47.492188 110.035156 41.75 107.375 38.664062 104.980469 C 36.539062 103.351562 35.402344 100.757812 35.402344 98.097656 L 35.402344 65.328125 C 35.402344 60.390625 39.402344 56.390625 44.339844 56.390625 L 71.164062 56.390625 C 76.101562 56.390625 80.105469 52.386719 80.105469 47.449219 L 80.105469 34.035156 L 99.328125 34.035156 C 101.964844 34.035156 104.535156 35.15625 106.167969 37.210938 C 108.535156 40.160156 111.195312 45.59375 111.375 55.269531 C 111.398438 55.628906 111.398438 56.007812 111.398438 56.390625 Z M 111.398438 56.390625 " fill-opacity="1" fill-rule="nonzero"/></g><path fill="#fab400" d="M 80.105469 45.214844 L 80.105469 47.449219 C 80.105469 52.386719 76.101562 56.390625 71.164062 56.390625 L 44.339844 56.390625 C 39.402344 56.390625 35.402344 60.390625 35.402344 65.328125 L 35.402344 63.09375 C 35.402344 58.15625 39.402344 54.152344 44.339844 54.152344 L 71.164062 54.152344 C 76.101562 54.152344 80.105469 50.152344 80.105469 45.214844 Z M 80.105469 45.214844 " fill-opacity="1" fill-rule="nonzero"/><g clip-path="url(#618f7e20de)"><path fill="#00a0c8" d="M 80.105469 14.679688 L 80.105469 47.449219 C 80.105469 52.386719 76.101562 56.390625 71.164062 56.390625 L 44.339844 56.390625 C 39.402344 56.390625 35.402344 60.390625 35.402344 65.328125 L 35.402344 78.742188 L 16.179688 78.742188 C 13.539062 78.742188 10.96875 77.625 9.339844 75.566406 C 6.878906 72.503906 4.109375 66.761719 4.109375 56.390625 C 4.109375 46.128906 6.769531 40.386719 9.160156 37.300781 C 10.789062 35.175781 13.382812 34.035156 16.042969 34.035156 L 55.515625 34.035156 C 56.746094 34.035156 57.753906 33.03125 57.753906 31.800781 C 57.753906 30.574219 56.746094 29.566406 55.515625 29.566406 L 37.636719 29.566406 C 36.40625 29.566406 35.402344 28.5625 35.402344 27.332031 L 35.402344 14.8125 C 35.402344 12.175781 36.519531 9.605469 38.574219 7.976562 C 41.636719 5.515625 47.382812 2.746094 57.753906 2.746094 C 68.011719 2.746094 73.757812 5.402344 76.839844 7.796875 C 78.964844 9.425781 80.105469 12.019531 80.105469 14.679688 Z M 80.105469 14.679688 " fill-opacity="1" fill-rule="nonzero"/></g><g clip-path="url(#c5d0facbe0)"><path fill="#0082aa" d="M 16.179688 76.503906 L 35.402344 76.503906 L 35.402344 78.742188 L 16.179688 78.742188 C 13.539062 78.742188 10.96875 77.625 9.339844 75.566406 C 6.878906 72.503906 4.109375 66.761719 4.109375 56.390625 C 4.109375 56.007812 4.109375 55.628906 4.128906 55.269531 C 4.308594 64.949219 6.96875 70.382812 9.339844 73.332031 C 10.96875 75.386719 13.539062 76.503906 16.179688 76.503906 Z M 16.179688 76.503906 " fill-opacity="1" fill-rule="nonzero"/></g><path fill="#0082aa" d="M 80.105469 45.214844 L 80.105469 47.449219 C 80.105469 52.386719 76.101562 56.390625 71.164062 56.390625 L 44.339844 56.390625 C 39.402344 56.390625 35.402344 60.390625 35.402344 65.328125 L 35.402344 63.09375 C 35.402344 58.15625 39.402344 54.152344 44.339844 54.152344 L 71.164062 54.152344 C 76.101562 54.152344 80.105469 50.152344 80.105469 45.214844 Z M 80.105469 45.214844 " fill-opacity="1" fill-rule="nonzero"/><path fill="#dc9600" d="M 80.105469 47.449219 L 80.105469 49.683594 C 80.105469 54.625 76.101562 58.625 71.164062 58.625 L 44.339844 58.625 C 39.402344 58.625 35.402344 62.625 35.402344 67.566406 L 35.402344 65.328125 C 35.402344 60.390625 39.402344 56.390625 44.339844 56.390625 L 71.164062 56.390625 C 76.101562 56.390625 80.105469 52.386719 80.105469 47.449219 Z M 80.105469 47.449219 " fill-opacity="1" fill-rule="nonzero"/><path fill="#f0f0f0" d="M 48.8125 18.390625 C 48.8125 18.683594 48.78125 18.976562 48.726562 19.261719 C 48.667969 19.550781 48.582031 19.832031 48.472656 20.101562 C 48.359375 20.371094 48.222656 20.628906 48.058594 20.875 C 47.894531 21.117188 47.710938 21.34375 47.503906 21.550781 C 47.292969 21.757812 47.070312 21.945312 46.824219 22.109375 C 46.582031 22.269531 46.324219 22.410156 46.050781 22.519531 C 45.78125 22.632812 45.5 22.71875 45.214844 22.773438 C 44.925781 22.832031 44.636719 22.859375 44.339844 22.859375 C 44.046875 22.859375 43.757812 22.832031 43.46875 22.773438 C 43.179688 22.71875 42.902344 22.632812 42.628906 22.519531 C 42.359375 22.410156 42.101562 22.269531 41.859375 22.109375 C 41.613281 21.945312 41.386719 21.757812 41.179688 21.550781 C 40.972656 21.34375 40.789062 21.117188 40.625 20.875 C 40.460938 20.628906 40.324219 20.371094 40.210938 20.101562 C 40.097656 19.832031 40.015625 19.550781 39.957031 19.261719 C 39.898438 18.976562 39.871094 18.683594 39.871094 18.390625 C 39.871094 18.097656 39.898438 17.804688 39.957031 17.519531 C 40.015625 17.230469 40.097656 16.949219 40.210938 16.679688 C 40.324219 16.410156 40.460938 16.152344 40.625 15.90625 C 40.789062 15.664062 40.972656 15.4375 41.179688 15.230469 C 41.386719 15.023438 41.613281 14.835938 41.859375 14.671875 C 42.101562 14.511719 42.359375 14.371094 42.628906 14.261719 C 42.902344 14.148438 43.179688 14.0625 43.46875 14.007812 C 43.757812 13.949219 44.046875 13.921875 44.339844 13.921875 C 44.636719 13.921875 44.925781 13.949219 45.214844 14.007812 C 45.5 14.0625 45.78125 14.148438 46.050781 14.261719 C 46.324219 14.371094 46.582031 14.511719 46.824219 14.671875 C 47.070312 14.835938 47.292969 15.023438 47.503906 15.230469 C 47.710938 15.4375 47.894531 15.664062 48.058594 15.90625 C 48.222656 16.152344 48.359375 16.410156 48.472656 16.679688 C 48.582031 16.949219 48.667969 17.230469 48.726562 17.519531 C 48.78125 17.804688 48.8125 18.097656 48.8125 18.390625 Z M 48.8125 18.390625 " fill-opacity="1" fill-rule="nonzero"/><path fill="#d2d2d2" d="M 48.8125 18.390625 C 48.8125 18.769531 48.765625 19.152344 48.65625 19.507812 C 48.164062 17.585938 46.421875 16.15625 44.339844 16.15625 C 42.261719 16.15625 40.519531 17.585938 40.027344 19.507812 C 39.914062 19.152344 39.871094 18.769531 39.871094 18.390625 C 39.871094 15.933594 41.882812 13.921875 44.339844 13.921875 C 46.800781 13.921875 48.8125 15.933594 48.8125 18.390625 Z M 48.8125 18.390625 " fill-opacity="1" fill-rule="nonzero"/><path fill="#f0f0f0" d="M 75.632812 94.386719 C 75.632812 94.679688 75.605469 94.972656 75.546875 95.257812 C 75.492188 95.546875 75.40625 95.828125 75.292969 96.097656 C 75.179688 96.371094 75.042969 96.628906 74.878906 96.871094 C 74.71875 97.113281 74.53125 97.339844 74.324219 97.546875 C 74.117188 97.757812 73.890625 97.941406 73.648438 98.105469 C 73.402344 98.265625 73.144531 98.40625 72.875 98.515625 C 72.601562 98.628906 72.324219 98.714844 72.035156 98.773438 C 71.746094 98.828125 71.457031 98.859375 71.164062 98.859375 C 70.871094 98.859375 70.578125 98.828125 70.292969 98.773438 C 70.003906 98.714844 69.722656 98.628906 69.453125 98.515625 C 69.183594 98.40625 68.925781 98.265625 68.679688 98.105469 C 68.4375 97.941406 68.210938 97.757812 68.003906 97.546875 C 67.796875 97.339844 67.609375 97.113281 67.445312 96.871094 C 67.285156 96.628906 67.144531 96.371094 67.035156 96.097656 C 66.921875 95.828125 66.835938 95.546875 66.777344 95.257812 C 66.722656 94.972656 66.691406 94.679688 66.691406 94.386719 C 66.691406 94.09375 66.722656 93.804688 66.777344 93.515625 C 66.835938 93.226562 66.921875 92.949219 67.035156 92.675781 C 67.144531 92.40625 67.285156 92.148438 67.445312 91.902344 C 67.609375 91.660156 67.796875 91.433594 68.003906 91.226562 C 68.210938 91.019531 68.4375 90.832031 68.679688 90.671875 C 68.925781 90.507812 69.183594 90.371094 69.453125 90.257812 C 69.722656 90.144531 70.003906 90.058594 70.292969 90.003906 C 70.578125 89.945312 70.871094 89.917969 71.164062 89.917969 C 71.457031 89.917969 71.746094 89.945312 72.035156 90.003906 C 72.324219 90.058594 72.601562 90.144531 72.875 90.257812 C 73.144531 90.371094 73.402344 90.507812 73.648438 90.671875 C 73.890625 90.832031 74.117188 91.019531 74.324219 91.226562 C 74.53125 91.433594 74.71875 91.660156 74.878906 91.902344 C 75.042969 92.148438 75.179688 92.40625 75.292969 92.675781 C 75.40625 92.949219 75.492188 93.226562 75.546875 93.515625 C 75.605469 93.804688 75.632812 94.09375 75.632812 94.386719 Z M 75.632812 94.386719 " fill-opacity="1" fill-rule="nonzero"/><path fill="#0082aa" d="M 57.753906 29.566406 L 57.753906 31.800781 C 57.753906 30.574219 56.746094 29.566406 55.515625 29.566406 L 37.636719 29.566406 C 36.40625 29.566406 35.402344 28.5625 35.402344 27.332031 L 35.402344 25.097656 C 35.402344 26.324219 36.40625 27.332031 37.636719 27.332031 L 55.515625 27.332031 C 56.746094 27.332031 57.753906 28.335938 57.753906 29.566406 Z M 57.753906 29.566406 " fill-opacity="1" fill-rule="nonzero"/><g clip-path="url(#ef3529c83a)"><path fill="#dc9600" d="M 111.398438 56.390625 C 111.398438 66.648438 108.738281 72.394531 106.34375 75.476562 C 104.714844 77.601562 102.121094 78.742188 99.460938 78.742188 L 59.988281 78.742188 C 58.757812 78.742188 57.753906 79.746094 57.753906 80.976562 L 57.753906 78.742188 C 57.753906 77.511719 58.757812 76.503906 59.988281 76.503906 L 99.460938 76.503906 C 102.121094 76.503906 104.714844 75.367188 106.34375 73.242188 C 108.648438 70.269531 111.195312 64.839844 111.375 55.269531 C 111.398438 55.628906 111.398438 56.007812 111.398438 56.390625 Z M 111.398438 56.390625 " fill-opacity="1" fill-rule="nonzero"/></g><path fill="#d2d2d2" d="M 75.632812 94.386719 C 75.632812 94.765625 75.589844 95.148438 75.476562 95.503906 C 74.984375 93.582031 73.242188 92.152344 71.164062 92.152344 C 69.085938 92.152344 67.339844 93.582031 66.851562 95.503906 C 66.738281 95.148438 66.691406 94.765625 66.691406 94.386719 C 66.691406 91.929688 68.703125 89.917969 71.164062 89.917969 C 73.621094 89.917969 75.632812 91.929688 75.632812 94.386719 Z M 75.632812 94.386719 " fill-opacity="1" fill-rule="nonzero"/></svg>